<svg width="336" height="137" viewBox="0 0 336 137" fill="none" xmlns="http://www.w3.org/2000/svg">
<g clip-path="url(#clip0_2_32)">
<path d="M68.7752 81.7348C62.5032 81.7348 59.3672 77.7988 59.3672 69.9268C59.3672 66.1934 60.1245 63.3561 61.6392 61.4148C63.1752 59.4734 65.6178 58.5028 68.9672 58.5028C71.6552 58.5028 74.0445 59.2494 76.1352 60.7428C76.1352 61.9374 75.9858 63.4521 75.6872 65.2868C75.3885 65.3508 74.7698 65.3828 73.8312 65.3828L72.8712 61.4148C71.3565 61.1374 70.1405 60.9988 69.2232 60.9988C67.5378 60.9988 66.0552 61.2334 64.7752 61.7028L64.1672 61.9268C64.0392 62.1401 63.8792 62.4601 63.6872 62.8868C63.4952 63.2921 63.2392 64.1561 62.9192 65.4788C62.6205 66.8014 62.4712 68.1561 62.4712 69.5428C62.4712 72.5508 62.9618 74.9401 63.9432 76.7108C64.9458 78.4814 66.5352 79.3668 68.7112 79.3668C70.2685 79.3668 71.4418 79.2068 72.2312 78.8868C72.4445 78.7801 72.7538 78.6201 73.1592 78.4068L73.8312 74.5668L75.6872 74.6628C76.0072 76.8601 76.1672 78.6414 76.1672 80.0068C75.7192 80.3481 74.7485 80.7214 73.2552 81.1268C71.7832 81.5321 70.2898 81.7348 68.7752 81.7348Z" fill="#FF0000"/>
<path d="M107.444 87.168L117.876 87.2C117.833 84.5973 117.769 82.0267 117.684 79.488C116.895 79.3387 115.945 79.0827 114.836 78.72L114.932 77.6H122.932C123.295 78.2827 123.476 78.9227 123.476 79.52C122.409 79.6053 121.556 79.648 120.916 79.648L120.564 97.824L123.252 98.08C123.252 98.6773 123.071 99.3173 122.708 100H115.348L115.252 98.88C116.255 98.5387 117.236 98.2827 118.196 98.112L117.94 89.216H107.38C107.337 93.056 107.316 95.9253 107.316 97.824L110.004 98.08C110.004 98.6773 109.823 99.3173 109.46 100H102.1L102.004 98.88C103.007 98.5387 103.988 98.2827 104.948 98.112C104.735 89.8347 104.564 83.6267 104.436 79.488C103.647 79.3387 102.697 79.0827 101.588 78.72L101.684 77.6H109.684C110.047 78.2827 110.228 78.9227 110.228 79.52C109.161 79.6053 108.308 79.648 107.668 79.648C107.604 81.2693 107.529 83.776 107.444 87.168Z" fill="#FF0000"/>
<path d="M62.5432 26.4867L72.9752 26.5187C72.9325 23.9161 72.8685 21.3454 72.7832 18.8067C71.9938 18.6574 71.0445 18.4014 69.9352 18.0387L70.0312 16.9187H78.0312C78.3938 17.6014 78.5752 18.2414 78.5752 18.8387C77.5085 18.9241 76.6552 18.9667 76.0152 18.9667L75.6632 37.1427L78.3512 37.3987C78.3512 37.9961 78.1698 38.6361 77.8072 39.3187H70.4472L70.3512 38.1987C71.3538 37.8574 72.3352 37.6014 73.2952 37.4307L73.0392 28.5347H62.4792C62.4365 32.3747 62.4152 35.2441 62.4152 37.1427L65.1032 37.3987C65.1032 37.9961 64.9218 38.6361 64.5592 39.3187H57.1992L57.1032 38.1987C58.1058 37.8574 59.0872 37.6014 60.0472 37.4307C59.8338 29.1534 59.6632 22.9454 59.5352 18.8067C58.7458 18.6574 57.7965 18.4014 56.6872 18.0387L56.7832 16.9187H64.7832C65.1458 17.6014 65.3272 18.2414 65.3272 18.8387C64.2605 18.9241 63.4072 18.9667 62.7672 18.9667C62.7032 20.5881 62.6285 23.0947 62.5432 26.4867Z" fill="white"/>
<path d="M71.816 117.746L82.248 117.778C82.2053 115.175 82.1413 112.605 82.056 110.066C81.2667 109.917 80.3173 109.661 79.208 109.298L79.304 108.178H87.304C87.6667 108.861 87.848 109.501 87.848 110.098C86.7813 110.183 85.928 110.226 85.288 110.226L84.936 128.402L87.624 128.658C87.624 129.255 87.4427 129.895 87.08 130.578H79.72L79.624 129.458C80.6267 129.117 81.608 128.861 82.568 128.69L82.312 119.794H71.752C71.7093 123.634 71.688 126.503 71.688 128.402L74.376 128.658C74.376 129.255 74.1947 129.895 73.832 130.578H66.472L66.376 129.458C67.3787 129.117 68.36 128.861 69.32 128.69C69.1067 120.413 68.936 114.205 68.808 110.066C68.0187 109.917 67.0693 109.661 65.96 109.298L66.056 108.178H74.056C74.4187 108.861 74.6 109.501 74.6 110.098C73.5333 110.183 72.68 110.226 72.04 110.226C71.976 111.847 71.9013 114.354 71.816 117.746Z" fill="white"/>
<path d="M25.5432 87.4868L35.9752 87.5188C35.9325 84.9161 35.8685 82.3454 35.7832 79.8068C34.9938 79.6574 34.0445 79.4014 32.9352 79.0388L33.0312 77.9188H41.0312C41.3938 78.6014 41.5752 79.2414 41.5752 79.8388C40.5085 79.9241 39.6552 79.9668 39.0152 79.9668L38.6632 98.1428L41.3512 98.3988C41.3512 98.9961 41.1698 99.6361 40.8072 100.319H33.4472L33.3512 99.1988C34.3538 98.8574 35.3352 98.6014 36.2952 98.4308L36.0392 89.5348H25.4792C25.4365 93.3748 25.4152 96.2441 25.4152 98.1428L28.1032 98.3988C28.1032 98.9961 27.9218 99.6361 27.5592 100.319H20.1992L20.1032 99.1988C21.1058 98.8574 22.0872 98.6014 23.0472 98.4308C22.8338 90.1534 22.6632 83.9454 22.5352 79.8068C21.7458 79.6574 20.7965 79.4014 19.6872 79.0388L19.7832 77.9188H27.7832C28.1458 78.6014 28.3272 79.2414 28.3272 79.8388C27.2605 79.9241 26.4072 79.9668 25.7672 79.9668C25.7032 81.5881 25.6285 84.0948 25.5432 87.4868Z" fill="white"/>
<line x1="67.9929" y1="53.7477" x2="67.9929" y2="42.9774" stroke="white" stroke-width="3"/>
<line x1="80.0783" y1="73.9409" x2="81.0783" y2="71.565" stroke="white" stroke-width="2"/>
<line x1="83.0905" y1="76.9131" x2="85.0905" y2="72.5373" stroke="white" stroke-width="2"/>
<line x1="86.1056" y1="79.5057" x2="89.1056" y2="73.5057" stroke="white" stroke-width="2"/>
<line x1="89.0976" y1="82.8979" x2="93.0976" y2="74.522" stroke="white" stroke-width="2"/>
<line x1="93.0991" y1="85.8947" x2="98.0991" y2="75.5188" stroke="white" stroke-width="2"/>
<line x1="48.1191" y1="83.111" x2="56.8365" y2="76.7859" stroke="white" stroke-width="3"/>
<path d="M69.7728 85.7591L71.2728 85.2591L77.7728 101.759L71.7729 103.259L69.7728 85.7591Z" fill="#D9D9D9"/>
</g>
<path d="M132.984 106.912C132.835 106.976 132.451 107.008 131.832 107.008C131.213 107.008 130.797 106.976 130.584 106.912C130.349 87.0507 130.221 76.7573 130.2 76.032C130.456 75.968 130.989 75.936 131.8 75.936C132.611 75.936 133.123 75.9573 133.336 76L132.984 106.912ZM143.507 79.808L143.347 87.52H148.403L148.659 85.216C149.257 85.216 149.897 85.3973 150.579 85.76V91.84L149.459 91.936C149.139 91.0187 148.926 90.2507 148.819 89.632H143.347C143.305 91.488 143.262 94.2293 143.219 97.856H150.547L151.315 94.848L153.171 94.976C153.47 96.192 153.619 97.2693 153.619 98.208C153.619 99.1253 153.598 99.7227 153.555 100H138.003L137.907 98.88C138.846 98.5387 139.753 98.2933 140.627 98.144C140.499 89.824 140.393 83.6373 140.307 79.584C139.838 79.5413 138.899 79.2853 137.491 78.816L137.651 77.6H153.075C153.118 77.8773 153.139 78.304 153.139 78.88C153.139 80.0533 152.99 81.3227 152.691 82.688C152.222 82.7947 151.603 82.848 150.835 82.848L150.067 79.808H143.507ZM179.914 79.808L183.274 97.824L186.186 98.112C186.186 98.688 186.005 99.3173 185.642 100L178.282 100L178.186 98.88C178.826 98.6027 179.616 98.3787 180.554 98.208L177.13 80.256L172.906 98.464H169.738L163.914 80.192L161.322 97.824L164.042 98.08C164.042 98.6773 163.861 99.3173 163.498 100H156.138L156.042 98.88C156.981 98.5387 157.92 98.2827 158.858 98.112L161.674 79.552C160.373 79.36 159.338 79.136 158.57 78.88L158.698 77.6H166.154L171.242 95.136H171.37L175.338 77.6H182.474C182.837 78.2827 183.018 78.944 183.018 79.584C181.632 79.7333 180.597 79.808 179.914 79.808ZM192.64 106.912C192.491 106.976 192.107 107.008 191.488 107.008C190.87 107.008 190.454 106.976 190.24 106.912C190.006 87.0507 189.878 76.7573 189.856 76.032C190.112 75.968 190.646 75.936 191.456 75.936C192.267 75.936 192.779 75.9573 192.992 76L192.64 106.912Z" fill="#FF0000"/>
<g clip-path="url(#clip1_2_32)">
<path d="M249.152 78.1748C252.331 78.1748 253.92 76.8841 253.92 74.3028C253.92 73.0441 253.141 71.9774 251.584 71.1028C250.88 70.6974 250.101 70.3134 249.248 69.9508C248.416 69.5881 247.573 69.1934 246.72 68.7668C245.867 68.3401 245.088 67.8814 244.384 67.3908C243.701 66.9001 243.136 66.2814 242.688 65.5348C242.261 64.7881 242.048 63.9454 242.048 63.0068C242.048 61.4708 242.667 60.1694 243.904 59.1028C245.163 58.0148 246.88 57.4708 249.056 57.4708C251.232 57.4708 253.525 58.1321 255.936 59.4548C255.936 60.6708 255.787 62.1961 255.488 64.0308C255.019 64.0948 254.4 64.1268 253.632 64.1268L252.672 60.4148C252.416 60.2868 251.904 60.1588 251.136 60.0308C250.389 59.9028 249.728 59.8388 249.152 59.8388C247.915 59.8388 246.955 60.1054 246.272 60.6388C245.589 61.1508 245.248 61.8761 245.248 62.8148C245.248 63.7321 245.643 64.5641 246.432 65.3108C247.243 66.0361 248.213 66.6654 249.344 67.1988C250.496 67.7108 251.637 68.2441 252.768 68.7988C253.92 69.3534 254.891 70.0788 255.68 70.9748C256.491 71.8494 256.896 72.8734 256.896 74.0468C256.896 76.1801 256.181 77.8334 254.752 79.0068C253.323 80.1588 251.456 80.7348 249.152 80.7348C247.893 80.7348 246.528 80.5428 245.056 80.1588C243.605 79.7534 242.4 79.2414 241.44 78.6228C241.483 77.1934 241.643 75.5401 241.92 73.6628C242.389 73.5988 243.008 73.5668 243.776 73.5668L244.448 77.4068C244.917 77.5988 245.621 77.7801 246.56 77.9508C247.52 78.1001 248.384 78.1748 249.152 78.1748Z" fill="#FF0000"/>
<path d="M292.737 96.92C297.046 96.92 299.201 93.8907 299.201 87.832C299.201 81.752 297.046 78.712 292.737 78.712C290.71 78.712 289.057 79.0107 287.777 79.608C286.625 81.8907 286.049 84.5253 286.049 87.512C286.049 90.4773 286.54 92.792 287.521 94.456C288.524 96.0987 290.262 96.92 292.737 96.92ZM282.913 87.928C282.913 84.1733 283.681 81.2827 285.217 79.256C286.774 77.208 289.292 76.184 292.769 76.184C296.268 76.184 298.732 77.1227 300.161 79C301.612 80.856 302.337 83.672 302.337 87.448C302.337 91.224 301.558 94.1573 300.001 96.248C298.465 98.3387 296.001 99.384 292.609 99.384C289.238 99.384 286.774 98.4133 285.217 96.472C283.681 94.5307 282.913 91.6827 282.913 87.928ZM309.808 86.168L320.24 86.2C320.197 83.5973 320.133 81.0267 320.048 78.488C319.258 78.3387 318.309 78.0827 317.2 77.72L317.296 76.6H325.296C325.658 77.2827 325.84 77.9227 325.84 78.52C324.773 78.6053 323.92 78.648 323.28 78.648L322.928 96.824L325.616 97.08C325.616 97.6773 325.434 98.3173 325.072 99H317.712L317.616 97.88C318.618 97.5387 319.6 97.2827 320.56 97.112L320.304 88.216H309.744C309.701 92.056 309.68 94.9253 309.68 96.824L312.368 97.08C312.368 97.6773 312.186 98.3173 311.824 99H304.464L304.368 97.88C305.37 97.5387 306.352 97.2827 307.312 97.112C307.098 88.8347 306.928 82.6267 306.8 78.488C306.01 78.3387 305.061 78.0827 303.952 77.72L304.048 76.6H312.048C312.41 77.2827 312.592 77.9227 312.592 78.52C311.525 78.6053 310.672 78.648 310.032 78.648C309.968 80.2693 309.893 82.776 309.808 86.168Z" fill="white"/>
<path d="M249.737 34.92C254.046 34.92 256.201 31.8907 256.201 25.832C256.201 19.752 254.046 16.712 249.737 16.712C247.71 16.712 246.057 17.0107 244.777 17.608C243.625 19.8907 243.049 22.5253 243.049 25.512C243.049 28.4773 243.54 30.792 244.521 32.456C245.524 34.0987 247.262 34.92 249.737 34.92ZM239.913 25.928C239.913 22.1733 240.681 19.2827 242.217 17.256C243.774 15.208 246.292 14.184 249.769 14.184C253.268 14.184 255.732 15.1227 257.161 17C258.612 18.856 259.337 21.672 259.337 25.448C259.337 29.224 258.558 32.1573 257.001 34.248C255.465 36.3387 253.001 37.384 249.609 37.384C246.238 37.384 243.774 36.4133 242.217 34.472C240.681 32.5307 239.913 29.6827 239.913 25.928Z" fill="white"/>
<path d="M210.464 97.2388C214.773 97.2388 216.928 94.2094 216.928 88.1508C216.928 82.0708 214.773 79.0308 210.464 79.0308C208.437 79.0308 206.784 79.3294 205.504 79.9268C204.352 82.2094 203.776 84.8441 203.776 87.8308C203.776 90.7961 204.267 93.1108 205.248 94.7748C206.251 96.4174 207.989 97.2388 210.464 97.2388ZM200.64 88.2468C200.64 84.4921 201.408 81.6014 202.944 79.5748C204.501 77.5268 207.019 76.5028 210.496 76.5028C213.995 76.5028 216.459 77.4414 217.888 79.3188C219.339 81.1748 220.064 83.9908 220.064 87.7668C220.064 91.5428 219.285 94.4761 217.728 96.5668C216.192 98.6574 213.728 99.7028 210.336 99.7028C206.965 99.7028 204.501 98.7321 202.944 96.7908C201.408 94.8494 200.64 92.0014 200.64 88.2468Z" fill="#FF0000"/>
<line x1="249.266" y1="52.7477" x2="249.266" y2="41.9774" stroke="white" stroke-width="3"/>
<line x1="261.351" y1="72.9409" x2="262.351" y2="70.565" stroke="white" stroke-width="2"/>
<line x1="264.363" y1="75.9131" x2="266.363" y2="71.5373" stroke="white" stroke-width="2"/>
<line x1="267.378" y1="78.5057" x2="270.378" y2="72.5057" stroke="white" stroke-width="2"/>
<line x1="270.37" y1="81.8979" x2="274.37" y2="73.522" stroke="white" stroke-width="2"/>
<line x1="274.372" y1="84.8947" x2="279.372" y2="74.5188" stroke="white" stroke-width="2"/>
<line x1="226.392" y1="85.111" x2="235.109" y2="78.7859" stroke="white" stroke-width="3"/>
<path d="M251.046 84.7591L252.546 84.2591L259.046 100.759L253.046 102.259L251.046 84.7591Z" fill="#D9D9D9"/>
<path d="M256.737 127.92C261.046 127.92 263.201 124.891 263.201 118.832C263.201 112.752 261.046 109.712 256.737 109.712C254.71 109.712 253.057 110.011 251.777 110.608C250.625 112.891 250.049 115.525 250.049 118.512C250.049 121.477 250.54 123.792 251.521 125.456C252.524 127.099 254.262 127.92 256.737 127.92ZM246.913 118.928C246.913 115.173 247.681 112.283 249.217 110.256C250.774 108.208 253.292 107.184 256.769 107.184C260.268 107.184 262.732 108.123 264.161 110C265.612 111.856 266.337 114.672 266.337 118.448C266.337 122.224 265.558 125.157 264.001 127.248C262.465 129.339 260.001 130.384 256.609 130.384C253.238 130.384 250.774 129.413 249.217 127.472C247.681 125.531 246.913 122.683 246.913 118.928ZM273.808 117.168L284.24 117.2C284.197 114.597 284.133 112.027 284.048 109.488C283.258 109.339 282.309 109.083 281.2 108.72L281.296 107.6H289.296C289.658 108.283 289.84 108.923 289.84 109.52C288.773 109.605 287.92 109.648 287.28 109.648L286.928 127.824L289.616 128.08C289.616 128.677 289.434 129.317 289.072 130H281.712L281.616 128.88C282.618 128.539 283.6 128.283 284.56 128.112L284.304 119.216H273.744C273.701 123.056 273.68 125.925 273.68 127.824L276.368 128.08C276.368 128.677 276.186 129.317 275.824 130H268.464L268.368 128.88C269.37 128.539 270.352 128.283 271.312 128.112C271.098 119.835 270.928 113.627 270.8 109.488C270.01 109.339 269.061 109.083 267.952 108.72L268.048 107.6H276.048C276.41 108.283 276.592 108.923 276.592 109.52C275.525 109.605 274.672 109.648 274.032 109.648C273.968 111.269 273.893 113.776 273.808 117.168Z" fill="white"/>
</g>
<defs>
<clipPath id="clip0_2_32">
<rect width="133" height="137" fill="white"/>
</clipPath>
<clipPath id="clip1_2_32">
<rect width="152" height="134" fill="white" transform="translate(184)"/>
</clipPath>
</defs>
</svg>
